<?xml version="1.0" standalone="no"?>
<!DOCTYPE svg PUBLIC "-//W3C//DTD SVG 20010904//EN"
 "http://www.w3.org/TR/2001/REC-SVG-20010904/DTD/svg10.dtd">
<svg version="1.0" xmlns="http://www.w3.org/2000/svg"
 width="225.000000pt" height="225.000000pt" viewBox="0 0 225.000000 225.000000"
 preserveAspectRatio="xMidYMid meet">

<g transform="translate(0.000000,225.000000) scale(0.100000,-0.100000)"
fill="#000000" stroke="none">
<path d="M142 2108 c-17 -17 -17 -1949 0 -1966 9 -9 129 -12 480 -12 452 0
468 1 478 19 13 25 13 27 -6 45 -14 14 -68 16 -450 16 l-434 0 0 915 0 915
493 0 492 0 172 -172 173 -173 2 -184 c3 -159 5 -185 20 -194 12 -8 21 -7 32
2 14 12 16 43 16 215 l0 201 -192 192 -193 193 -535 0 c-404 0 -539 -3 -548
-12z"/>
<path d="M422 1658 c-16 -16 -15 -33 4 -52 13 -14 47 -16 215 -16 119 0 208 4
220 10 21 12 25 40 7 58 -17 17 -429 17 -446 0z"/>
<path d="M415 1420 c-16 -50 -12 -50 431 -50 381 0 414 1 423 17 6 11 6 24 0
35 -9 17 -38 18 -429 18 -413 0 -419 0 -425 -20z"/>
<path d="M412 1181 c-8 -4 -12 -19 -10 -32 l3 -24 297 -3 c292 -2 297 -2 303
18 15 48 2 50 -299 50 -154 0 -287 -4 -294 -9z"/>
<path d="M1530 979 c-54 -22 -92 -73 -104 -141 -7 -36 -9 -38 -46 -38 -22 0
-45 -7 -54 -16 -35 -34 -11 -64 51 -64 l43 0 0 -45 0 -45 -43 0 c-62 0 -86
-30 -51 -64 9 -9 32 -16 55 -16 38 0 39 -1 45 -41 14 -86 74 -141 162 -147
107 -8 185 59 186 157 1 44 0 46 -28 46 -26 0 -30 -5 -43 -48 -17 -60 -60 -91
-113 -83 -42 6 -90 55 -90 91 0 21 5 24 46 27 88 6 88 70 0 76 l-46 3 0 44 0
44 46 3 c88 6 88 70 0 76 -41 3 -46 6 -46 27 0 36 48 85 90 91 53 8 96 -23
113 -83 13 -43 17 -48 43 -48 26 0 29 4 32 35 4 50 -35 120 -84 147 -42 24
-119 30 -164 12z"/>
</g>
</svg>
