<svg id="svg" version="1.1" xmlns="http://www.w3.org/2000/svg" xmlns:xlink="http://www.w3.org/1999/xlink" width="400" height="400" viewBox="0, 0, 400,400"><g id="svgg"><path id="path0" d="M204.800 20.379 C 204.800 20.646,203.332 20.800,200.800 20.800 C 198.400 20.800,196.800 20.960,196.800 21.200 C 196.800 21.422,195.741 21.600,194.424 21.600 C 193.117 21.600,191.936 21.780,191.800 22.000 C 191.664 22.220,190.753 22.400,189.776 22.400 C 188.799 22.400,188.000 22.580,188.000 22.800 C 188.000 23.020,187.370 23.200,186.600 23.200 C 185.830 23.200,185.200 23.380,185.200 23.600 C 185.200 23.820,184.792 24.000,184.294 24.000 C 183.796 24.000,182.446 24.344,181.294 24.766 C 180.142 25.187,179.200 25.452,179.200 25.355 C 179.200 25.259,178.665 25.456,178.012 25.794 C 177.359 26.132,176.684 26.371,176.512 26.325 C 176.340 26.280,175.355 26.638,174.322 27.121 C 173.289 27.605,172.342 28.000,172.217 28.000 C 171.780 28.000,165.789 30.945,164.704 31.693 C 164.101 32.109,163.258 32.475,162.831 32.508 C 162.405 32.540,162.128 32.683,162.216 32.826 C 162.305 32.969,161.617 33.479,160.688 33.959 C 159.760 34.438,157.448 35.949,155.551 37.315 C 146.640 43.734,139.939 50.547,134.651 58.569 C 133.263 60.673,132.047 62.314,131.948 62.215 C 131.849 62.115,131.742 62.371,131.711 62.781 C 131.680 63.192,131.227 64.220,130.703 65.064 C 129.615 66.819,128.564 69.257,128.705 69.700 C 128.757 69.865,128.620 70.000,128.400 70.000 C 128.180 70.000,128.000 70.261,128.000 70.580 C 128.000 70.899,127.756 71.304,127.458 71.480 C 127.160 71.656,126.797 72.340,126.651 73.000 C 126.344 74.386,126.264 74.644,125.712 76.000 C 125.488 76.550,125.402 77.255,125.521 77.566 C 125.658 77.926,125.566 78.026,125.268 77.842 C 124.950 77.646,124.800 77.938,124.800 78.753 C 124.800 79.413,124.620 80.064,124.400 80.200 C 124.180 80.336,124.000 80.966,124.000 81.600 C 124.000 82.234,123.820 82.864,123.600 83.000 C 123.380 83.136,123.200 83.766,123.200 84.400 C 123.200 85.034,123.020 85.664,122.800 85.800 C 122.580 85.936,122.400 86.746,122.400 87.600 C 122.400 88.454,122.220 89.264,122.000 89.400 C 121.780 89.536,121.600 90.346,121.600 91.200 C 121.600 92.054,121.450 92.846,121.266 92.959 C 121.083 93.072,120.892 94.285,120.843 95.653 C 120.793 97.021,120.558 98.504,120.321 98.948 C 119.841 99.844,119.685 125.399,120.136 129.200 C 120.279 130.410,120.511 132.570,120.651 134.000 C 120.792 135.430,121.107 136.860,121.353 137.177 C 121.684 137.604,121.682 137.683,121.347 137.482 C 120.845 137.181,120.809 139.075,121.302 139.852 C 121.459 140.101,121.633 141.181,121.688 142.252 C 121.743 143.324,121.924 144.299,122.089 144.421 C 122.434 144.673,123.125 148.064,123.270 150.210 C 123.323 151.006,123.510 151.744,123.684 151.852 C 123.858 151.959,124.000 152.526,124.000 153.110 C 124.000 154.762,125.252 157.753,125.679 157.122 C 125.906 156.788,125.968 157.069,125.852 157.900 C 125.720 158.839,125.827 159.200,126.235 159.200 C 126.546 159.200,126.800 159.392,126.800 159.627 C 126.800 159.872,126.459 159.946,126.000 159.800 C 125.395 159.608,125.208 159.723,125.232 160.273 C 125.249 160.673,125.351 160.785,125.457 160.522 C 125.786 159.714,126.800 160.427,126.800 161.466 C 126.800 162.018,126.975 162.339,127.200 162.200 C 127.433 162.056,127.600 162.455,127.600 163.153 C 127.600 163.813,127.780 164.464,128.000 164.600 C 128.220 164.736,128.400 165.209,128.400 165.652 C 128.400 167.715,124.098 167.600,201.200 167.600 C 279.133 167.600,274.000 167.753,274.000 165.429 C 274.000 164.863,274.180 164.400,274.400 164.400 C 274.620 164.400,274.800 163.500,274.800 162.400 C 274.800 161.300,274.980 160.400,275.200 160.400 C 275.420 160.400,275.600 160.130,275.600 159.800 C 275.600 159.470,275.803 159.245,276.050 159.300 C 276.298 159.355,276.592 159.146,276.705 158.836 C 276.846 158.446,276.708 158.350,276.255 158.524 C 275.846 158.681,275.600 158.570,275.600 158.230 C 275.600 157.931,275.847 157.591,276.149 157.475 C 276.459 157.356,276.649 156.828,276.587 156.260 C 276.526 155.703,276.715 155.165,277.011 155.051 C 277.378 154.910,277.507 154.263,277.422 152.992 C 277.336 151.707,277.465 151.073,277.841 150.929 C 278.415 150.709,278.477 148.899,277.936 148.169 C 277.577 147.684,278.393 145.200,278.911 145.200 C 279.096 145.200,279.165 145.065,279.064 144.900 C 278.963 144.735,279.050 143.340,279.258 141.800 C 279.466 140.260,279.684 137.470,279.742 135.600 C 279.799 133.730,279.982 129.050,280.149 125.200 C 280.443 118.376,280.002 106.023,279.184 98.200 C 278.977 96.220,278.701 93.430,278.570 92.000 C 278.439 90.570,278.168 89.229,277.966 89.020 C 277.765 88.811,277.600 87.877,277.600 86.944 C 277.600 86.011,277.420 85.136,277.200 85.000 C 276.980 84.864,276.800 83.953,276.800 82.976 C 276.800 81.999,276.620 81.200,276.400 81.200 C 276.180 81.200,276.000 80.480,276.000 79.600 C 276.000 78.720,275.820 78.000,275.600 78.000 C 275.380 78.000,275.200 77.381,275.200 76.624 C 275.200 75.867,275.020 75.136,274.800 75.000 C 274.580 74.864,274.400 74.223,274.400 73.576 C 274.400 72.929,274.220 72.400,274.000 72.400 C 273.780 72.400,273.600 71.871,273.600 71.224 C 273.600 70.577,273.420 69.936,273.200 69.800 C 272.980 69.664,272.800 69.273,272.800 68.932 C 272.800 66.272,264.013 48.787,262.314 48.067 C 262.142 47.993,262.000 47.718,262.000 47.455 C 262.000 47.192,261.640 46.717,261.200 46.400 C 260.760 46.083,260.400 45.676,260.400 45.495 C 260.400 45.165,259.969 44.573,258.733 43.205 C 258.367 42.799,258.172 42.362,258.300 42.233 C 258.428 42.105,258.315 42.000,258.048 42.000 C 257.782 42.000,257.114 41.550,256.564 41.000 C 256.014 40.450,255.657 40.000,255.772 40.000 C 255.886 40.000,254.769 38.893,253.290 37.541 C 251.810 36.188,250.420 34.871,250.200 34.614 C 249.617 33.933,242.920 29.554,240.700 28.402 C 239.655 27.860,238.800 27.259,238.800 27.066 C 238.800 26.872,238.523 26.821,238.185 26.950 C 237.835 27.085,237.472 26.931,237.343 26.596 C 237.218 26.271,236.982 26.088,236.817 26.189 C 236.653 26.291,235.824 26.020,234.975 25.587 C 234.126 25.154,233.120 24.800,232.739 24.800 C 232.359 24.800,231.936 24.620,231.800 24.400 C 231.664 24.180,231.124 24.000,230.600 24.000 C 230.076 24.000,229.536 23.820,229.400 23.600 C 229.264 23.380,228.634 23.200,228.000 23.200 C 227.366 23.200,226.736 23.020,226.600 22.800 C 226.464 22.580,225.769 22.400,225.056 22.400 C 224.343 22.400,223.589 22.237,223.380 22.039 C 222.894 21.576,220.028 21.198,215.100 20.946 C 212.955 20.837,211.200 20.604,211.200 20.430 C 211.200 20.255,209.760 20.078,208.000 20.036 C 205.979 19.987,204.800 20.113,204.800 20.379 " stroke="none" fill="#54dc4a" fill-rule="evenodd"></path><path id="path1" d="M177.200 25.800 C 176.650 26.114,176.380 26.372,176.600 26.372 C 176.820 26.372,177.450 26.114,178.000 25.800 C 178.550 25.486,178.820 25.228,178.600 25.228 C 178.380 25.228,177.750 25.486,177.200 25.800 M238.803 27.120 C 238.808 27.538,242.033 29.301,242.301 29.032 C 242.576 28.758,242.649 28.811,240.500 27.711 C 239.565 27.232,238.801 26.966,238.803 27.120 M150.860 40.242 C 150.562 40.578,150.399 40.932,150.495 41.029 C 150.592 41.126,150.998 40.844,151.398 40.402 C 151.797 39.961,151.961 39.607,151.762 39.615 C 151.563 39.624,151.157 39.905,150.860 40.242 M147.200 43.533 C 147.200 43.790,146.960 44.000,146.668 44.000 C 146.126 44.000,141.779 48.314,142.051 48.582 C 142.133 48.662,143.431 47.560,144.936 46.133 C 146.441 44.706,147.566 43.432,147.436 43.303 C 147.306 43.173,147.200 43.277,147.200 43.533 M259.206 43.471 C 259.218 44.084,259.955 44.978,260.226 44.707 C 260.374 44.559,260.204 44.147,259.848 43.790 C 259.491 43.434,259.203 43.291,259.206 43.471 M137.660 53.442 C 137.362 53.778,137.199 54.132,137.295 54.229 C 137.392 54.326,137.798 54.044,138.198 53.602 C 138.597 53.161,138.761 52.807,138.562 52.815 C 138.363 52.824,137.957 53.105,137.660 53.442 M132.869 60.439 C 132.110 61.654,132.566 61.816,133.355 60.612 C 133.720 60.056,133.878 59.600,133.705 59.600 C 133.533 59.600,133.157 59.978,132.869 60.439 M270.000 61.356 C 270.000 61.442,270.356 62.297,270.791 63.256 C 271.226 64.215,271.586 64.713,271.591 64.361 C 271.600 63.704,270.475 61.200,270.171 61.200 C 270.077 61.200,270.000 61.270,270.000 61.356 M130.336 64.800 C 130.044 65.460,129.669 66.000,129.502 66.000 C 129.336 66.000,129.200 66.360,129.200 66.800 C 129.200 67.240,129.020 67.600,128.800 67.600 C 128.580 67.600,128.400 67.949,128.400 68.376 C 128.400 68.803,128.220 69.264,128.000 69.400 C 127.780 69.536,127.621 70.042,127.646 70.524 C 127.682 71.200,127.734 71.241,127.876 70.700 C 127.976 70.315,128.225 70.000,128.429 70.000 C 128.633 70.000,128.757 69.865,128.705 69.700 C 128.566 69.260,129.612 66.825,130.680 65.100 C 131.192 64.275,131.443 63.600,131.239 63.600 C 131.034 63.600,130.628 64.140,130.336 64.800 M272.703 68.606 C 272.809 69.159,273.054 69.710,273.248 69.830 C 273.441 69.949,273.621 70.622,273.646 71.324 C 273.673 72.058,273.773 72.290,273.882 71.870 C 273.985 71.468,273.835 70.343,273.548 69.370 C 272.990 67.479,272.383 66.931,272.703 68.606 M274.400 73.576 C 274.400 74.223,274.542 74.841,274.716 74.948 C 274.890 75.056,274.961 74.527,274.873 73.772 C 274.676 72.091,274.400 71.977,274.400 73.576 M279.467 101.700 C 279.814 103.523,280.000 103.581,280.000 101.867 C 280.000 101.060,279.825 100.400,279.610 100.400 C 279.386 100.400,279.325 100.953,279.467 101.700 M119.467 109.067 C 119.097 109.436,119.129 122.400,119.500 122.400 C 119.718 122.400,119.985 108.808,119.767 108.801 C 119.748 108.800,119.613 108.920,119.467 109.067 M280.200 120.601 C 280.200 124.451,280.335 127.600,280.500 127.600 C 280.665 127.600,280.800 124.450,280.800 120.600 C 280.800 116.750,280.665 113.600,280.500 113.601 C 280.335 113.602,280.200 116.752,280.200 120.601 M120.040 132.500 C 120.018 133.325,120.180 134.000,120.400 134.000 C 120.858 134.000,120.858 133.430,120.400 132.000 C 120.114 131.108,120.075 131.161,120.040 132.500 M279.479 139.357 C 279.315 139.774,279.275 140.209,279.391 140.324 C 279.755 140.689,280.076 140.091,279.924 139.331 C 279.783 138.635,279.762 138.636,279.479 139.357 M121.600 145.000 C 121.600 145.330,121.780 145.600,122.000 145.600 C 122.220 145.600,122.400 146.500,122.400 147.600 C 122.400 148.800,122.578 149.600,122.845 149.600 C 123.269 149.600,123.214 148.826,122.555 145.500 C 122.326 144.346,121.600 143.966,121.600 145.000 M278.091 146.483 C 277.753 147.380,277.733 147.892,278.027 148.183 C 278.320 148.474,278.367 148.388,278.181 147.900 C 277.996 147.413,278.110 147.200,278.557 147.200 C 278.976 147.200,279.200 146.852,279.200 146.200 C 279.200 144.814,278.670 144.950,278.091 146.483 M277.573 150.900 C 277.193 152.307,277.274 153.581,277.715 153.128 C 278.323 152.503,278.514 150.800,277.975 150.800 C 277.769 150.800,277.588 150.845,277.573 150.900 M123.200 152.576 C 123.200 153.139,123.380 153.600,123.600 153.600 C 123.820 153.600,124.000 153.251,124.000 152.824 C 124.000 152.397,123.820 151.936,123.600 151.800 C 123.373 151.660,123.200 151.996,123.200 152.576 M124.030 155.700 C 124.013 156.305,124.180 156.800,124.400 156.800 C 124.620 156.800,124.800 157.430,124.800 158.200 C 124.800 158.970,124.965 159.600,125.167 159.600 C 125.369 159.600,125.819 159.709,126.167 159.843 C 126.515 159.976,126.800 159.886,126.800 159.643 C 126.800 159.399,126.546 159.200,126.235 159.200 C 125.832 159.200,125.714 158.826,125.824 157.900 C 125.908 157.185,125.863 156.869,125.723 157.197 C 125.544 157.616,125.258 157.318,124.764 156.197 C 124.106 154.705,124.057 154.673,124.030 155.700 M276.961 155.106 C 276.719 155.268,276.554 155.813,276.595 156.317 C 276.636 156.821,276.405 157.381,276.083 157.562 C 275.760 157.742,275.575 158.125,275.671 158.412 C 275.963 159.290,277.600 157.181,277.600 155.925 C 277.600 154.690,277.594 154.683,276.961 155.106 M275.600 159.867 C 275.600 160.160,275.420 160.400,275.200 160.400 C 274.980 160.400,274.800 161.300,274.800 162.400 C 274.800 163.500,274.620 164.400,274.400 164.400 C 274.180 164.400,274.000 164.863,274.000 165.429 C 274.000 167.753,279.133 167.600,201.200 167.600 C 124.098 167.600,128.400 167.715,128.400 165.652 C 128.400 165.209,128.220 164.736,128.000 164.600 C 127.780 164.464,127.600 163.813,127.600 163.153 C 127.600 162.455,127.433 162.056,127.200 162.200 C 126.975 162.339,126.800 162.018,126.800 161.466 C 126.800 160.221,125.734 159.748,125.387 160.840 C 125.240 161.304,125.412 162.064,125.797 162.652 C 126.162 163.209,126.360 163.927,126.237 164.247 C 126.114 164.568,126.270 164.929,126.583 165.049 C 126.949 165.189,127.101 165.685,127.006 166.434 C 126.925 167.075,127.025 167.600,127.229 167.600 C 127.433 167.600,127.600 168.039,127.600 168.576 C 127.600 169.113,127.780 169.664,128.000 169.800 C 128.220 169.936,128.400 170.391,128.400 170.811 C 128.400 171.232,128.760 172.217,129.200 173.000 C 129.640 173.783,130.000 174.779,130.000 175.212 C 130.000 175.645,130.180 176.000,130.400 176.000 C 130.620 176.000,130.800 176.360,130.800 176.800 C 130.800 177.240,130.980 177.600,131.200 177.600 C 131.420 177.600,131.600 178.140,131.600 178.800 C 131.600 179.460,131.780 180.000,132.000 180.000 C 132.220 180.000,132.400 180.360,132.400 180.800 C 132.400 181.240,132.580 181.600,132.800 181.600 C 133.020 181.600,133.200 181.960,133.200 182.400 C 133.200 182.840,133.380 183.200,133.600 183.200 C 133.820 183.200,134.000 183.560,134.000 184.000 C 134.000 184.440,134.180 184.800,134.400 184.800 C 134.620 184.800,134.800 185.160,134.800 185.600 C 134.800 186.040,134.980 186.400,135.200 186.400 C 135.420 186.400,135.600 186.760,135.600 187.200 C 135.600 187.640,135.736 188.000,135.902 188.000 C 136.069 188.000,136.460 188.585,136.772 189.300 C 137.084 190.015,137.668 190.891,138.070 191.247 C 138.471 191.603,138.800 192.188,138.800 192.547 C 138.800 192.906,138.980 193.200,139.200 193.200 C 139.420 193.200,139.600 193.520,139.600 193.912 C 139.600 194.303,139.960 194.883,140.400 195.200 C 140.840 195.517,141.200 196.014,141.200 196.305 C 141.200 196.596,141.554 197.213,141.986 197.677 C 142.419 198.141,142.695 198.647,142.600 198.800 C 142.505 198.953,142.781 199.459,143.214 199.923 C 143.646 200.387,144.000 200.927,144.000 201.124 C 144.000 201.321,144.540 202.046,145.200 202.737 C 145.860 203.428,146.400 204.153,146.400 204.348 C 146.400 204.544,147.120 205.445,148.000 206.352 C 148.880 207.259,149.600 208.082,149.600 208.182 C 149.600 208.491,161.858 220.800,162.166 220.800 C 162.745 220.800,163.600 221.961,163.600 222.748 C 163.600 223.191,163.780 223.664,164.000 223.800 C 164.220 223.936,164.400 224.667,164.400 225.424 C 164.400 226.181,164.580 226.800,164.800 226.800 C 165.044 226.800,165.200 228.667,165.200 231.600 C 165.200 234.533,165.044 236.400,164.800 236.400 C 164.580 236.400,164.400 237.120,164.400 238.000 C 164.400 238.880,164.220 239.600,164.000 239.600 C 163.780 239.600,163.600 239.960,163.600 240.400 C 163.600 240.840,163.420 241.200,163.200 241.200 C 162.980 241.200,162.800 241.560,162.800 242.000 C 162.800 242.440,162.620 242.800,162.400 242.800 C 162.180 242.800,162.000 243.042,162.000 243.338 C 162.000 243.634,161.640 244.202,161.200 244.600 C 160.760 244.998,160.400 245.566,160.400 245.862 C 160.400 246.158,160.265 246.401,160.100 246.401 C 159.935 246.402,159.440 246.941,159.000 247.600 C 158.560 248.259,157.885 248.798,157.500 248.799 C 157.115 248.799,156.800 248.980,156.800 249.200 C 156.800 249.420,156.440 249.600,156.000 249.600 C 155.560 249.600,155.200 249.780,155.200 250.000 C 155.200 250.220,154.660 250.400,154.000 250.400 C 153.340 250.400,152.800 250.580,152.800 250.800 C 152.800 251.020,152.440 251.200,152.000 251.200 C 151.560 251.200,151.200 251.380,151.200 251.600 C 151.200 251.820,150.840 252.000,150.400 252.000 C 149.960 252.000,149.600 252.180,149.600 252.400 C 149.600 252.620,149.060 252.800,148.400 252.800 C 147.740 252.800,147.199 252.935,147.197 253.100 C 147.193 253.459,145.256 254.400,144.520 254.400 C 144.234 254.400,144.000 254.580,144.000 254.800 C 144.000 255.020,143.550 255.200,143.000 255.200 C 142.450 255.200,142.000 255.380,142.000 255.600 C 142.000 255.820,141.640 256.000,141.200 256.000 C 140.760 256.000,140.400 256.180,140.400 256.400 C 140.400 256.620,139.860 256.800,139.200 256.800 C 138.540 256.800,138.000 256.980,138.000 257.200 C 138.000 257.420,137.640 257.600,137.200 257.600 C 136.760 257.600,136.400 257.780,136.400 258.000 C 136.400 258.220,136.051 258.400,135.624 258.400 C 135.197 258.400,134.734 258.583,134.596 258.807 C 134.458 259.030,134.183 259.113,133.985 258.991 C 133.788 258.869,132.866 259.136,131.938 259.584 C 131.009 260.033,130.032 260.400,129.765 260.400 C 129.499 260.400,128.255 260.940,127.000 261.600 C 125.745 262.260,124.377 262.800,123.959 262.800 C 123.542 262.800,123.200 262.980,123.200 263.200 C 123.200 263.420,122.840 263.600,122.400 263.600 C 121.960 263.600,121.600 263.780,121.600 264.000 C 121.600 264.220,121.060 264.400,120.400 264.400 C 119.740 264.400,119.200 264.580,119.200 264.800 C 119.200 265.020,118.840 265.200,118.400 265.200 C 117.960 265.200,117.600 265.380,117.600 265.600 C 117.600 265.820,117.240 266.000,116.800 266.000 C 116.360 266.000,116.000 266.180,116.000 266.400 C 116.000 266.620,115.460 266.800,114.800 266.800 C 114.140 266.800,113.600 266.980,113.600 267.200 C 113.600 267.420,113.240 267.600,112.800 267.600 C 112.360 267.600,112.000 267.780,112.000 268.000 C 112.000 268.220,111.676 268.400,111.280 268.400 C 110.386 268.400,108.407 269.294,108.403 269.700 C 108.401 269.865,107.860 270.000,107.200 270.000 C 106.540 270.000,106.000 270.180,106.000 270.400 C 106.000 270.620,105.640 270.800,105.200 270.800 C 104.760 270.800,104.400 270.980,104.400 271.200 C 104.400 271.420,104.040 271.600,103.600 271.600 C 103.160 271.600,102.800 271.780,102.800 272.000 C 102.800 272.220,102.260 272.400,101.600 272.400 C 100.940 272.400,100.400 272.580,100.400 272.800 C 100.400 273.020,100.040 273.200,99.600 273.200 C 99.160 273.200,98.800 273.380,98.800 273.600 C 98.800 273.820,98.260 274.000,97.600 274.000 C 96.940 274.000,96.400 274.160,96.400 274.355 C 96.400 274.551,95.783 274.827,95.029 274.968 C 94.275 275.110,93.600 275.394,93.529 275.601 C 93.458 275.808,93.040 276.036,92.600 276.108 C 92.160 276.180,91.419 276.449,90.953 276.705 C 90.487 276.962,89.992 277.058,89.853 276.919 C 89.714 276.780,89.600 276.877,89.600 277.133 C 89.600 277.390,89.240 277.600,88.800 277.600 C 88.360 277.600,88.000 277.780,88.000 278.000 C 88.000 278.220,87.460 278.400,86.800 278.400 C 86.140 278.400,85.600 278.580,85.600 278.800 C 85.600 279.020,85.240 279.200,84.800 279.200 C 84.360 279.200,84.000 279.380,84.000 279.600 C 84.000 279.820,83.640 280.000,83.200 280.000 C 82.760 280.000,82.400 280.180,82.400 280.400 C 82.400 280.620,81.860 280.800,81.200 280.800 C 80.540 280.800,80.000 280.980,80.000 281.200 C 80.000 281.420,79.640 281.600,79.200 281.600 C 78.760 281.600,78.400 281.780,78.400 282.000 C 78.400 282.220,78.040 282.400,77.600 282.400 C 77.160 282.400,76.800 282.580,76.800 282.800 C 76.800 283.020,76.350 283.200,75.800 283.200 C 75.250 283.200,74.800 283.380,74.800 283.600 C 74.800 283.820,74.440 284.000,74.000 284.000 C 73.560 284.000,73.200 284.180,73.200 284.400 C 73.200 284.620,72.840 284.800,72.400 284.800 C 71.960 284.800,71.600 284.980,71.600 285.200 C 71.600 285.420,71.060 285.600,70.400 285.600 C 69.740 285.600,69.200 285.780,69.200 286.000 C 69.200 286.220,68.840 286.400,68.400 286.400 C 67.960 286.400,67.600 286.580,67.600 286.800 C 67.600 287.020,67.240 287.200,66.800 287.200 C 66.360 287.200,66.000 287.380,66.000 287.600 C 66.000 287.820,65.640 288.000,65.200 288.000 C 64.760 288.000,64.400 288.180,64.400 288.400 C 64.400 288.620,64.040 288.800,63.600 288.800 C 63.160 288.800,62.800 288.980,62.800 289.200 C 62.800 289.420,62.465 289.600,62.055 289.600 C 61.646 289.600,59.947 290.301,58.281 291.159 C 56.614 292.016,55.158 292.624,55.044 292.511 C 54.931 292.398,54.545 292.598,54.187 292.956 C 53.829 293.314,53.370 293.505,53.168 293.380 C 52.965 293.255,52.800 293.343,52.800 293.576 C 52.800 293.809,52.440 294.000,52.000 294.000 C 51.560 294.000,51.200 294.180,51.200 294.400 C 51.200 294.620,50.840 294.800,50.400 294.800 C 49.960 294.800,49.600 294.980,49.600 295.200 C 49.600 295.420,49.240 295.600,48.800 295.600 C 48.360 295.600,48.000 295.780,48.000 296.000 C 48.000 296.220,47.640 296.400,47.200 296.400 C 46.760 296.400,46.400 296.580,46.400 296.800 C 46.400 297.020,46.040 297.200,45.600 297.200 C 45.160 297.200,44.800 297.380,44.800 297.600 C 44.800 297.820,44.429 298.000,43.976 298.000 C 43.523 298.000,43.264 298.180,43.400 298.400 C 43.536 298.620,43.277 298.800,42.824 298.800 C 42.371 298.800,42.000 298.980,42.000 299.200 C 42.000 299.420,41.640 299.600,41.200 299.600 C 40.760 299.600,40.400 299.780,40.400 300.000 C 40.400 300.220,40.040 300.400,39.600 300.400 C 39.160 300.400,38.800 300.580,38.800 300.800 C 38.800 301.020,38.440 301.200,38.000 301.200 C 37.560 301.200,37.200 301.380,37.200 301.600 C 37.200 301.820,36.880 302.000,36.488 302.000 C 36.097 302.000,35.517 302.360,35.200 302.800 C 34.883 303.240,34.303 303.600,33.912 303.600 C 33.520 303.600,33.200 303.780,33.200 304.000 C 33.200 304.220,32.880 304.400,32.488 304.400 C 32.097 304.400,31.517 304.760,31.200 305.200 C 30.883 305.640,30.303 306.000,29.912 306.000 C 29.520 306.000,29.200 306.180,29.200 306.400 C 29.200 306.620,28.883 306.800,28.496 306.800 C 28.109 306.800,27.568 307.160,27.293 307.600 C 27.018 308.040,26.525 308.400,26.197 308.400 C 25.868 308.400,25.600 308.591,25.600 308.824 C 25.600 309.057,25.420 309.136,25.200 309.000 C 24.980 308.864,24.800 308.943,24.800 309.176 C 24.800 309.409,24.480 309.600,24.088 309.600 C 23.697 309.600,23.117 309.960,22.800 310.400 C 22.483 310.840,21.975 311.200,21.672 311.200 C 21.369 311.200,20.617 311.740,20.000 312.400 C 19.383 313.060,18.663 313.600,18.400 313.600 C 18.137 313.600,17.417 314.140,16.800 314.800 C 16.183 315.460,15.478 316.000,15.232 316.000 C 14.986 316.000,13.615 317.170,12.185 318.600 C 10.755 320.030,9.671 321.200,9.777 321.200 C 9.882 321.200,9.256 321.906,8.384 322.769 C 7.513 323.631,6.800 324.443,6.800 324.572 C 6.800 324.702,6.260 325.372,5.600 326.063 C 4.940 326.754,4.400 327.562,4.400 327.859 C 4.400 328.157,4.220 328.400,4.000 328.400 C 3.780 328.400,3.600 328.720,3.600 329.112 C 3.600 329.503,3.240 330.083,2.800 330.400 C 2.330 330.739,2.000 331.435,2.000 332.088 C 2.000 332.700,1.820 333.200,1.600 333.200 C 1.380 333.200,1.200 333.545,1.200 333.967 C 1.200 334.388,0.975 334.808,0.700 334.900 C 0.059 335.113,-0.038 371.859,0.601 372.314 C 0.821 372.471,1.256 373.095,1.568 373.700 C 1.880 374.305,2.279 374.800,2.454 374.800 C 2.630 374.800,3.403 375.430,4.173 376.200 C 4.943 376.970,5.849 377.600,6.187 377.600 C 6.524 377.600,6.800 377.780,6.800 378.000 C 6.800 378.220,7.160 378.400,7.600 378.400 C 8.040 378.400,8.400 378.580,8.400 378.800 C 8.400 379.020,9.030 379.200,9.800 379.200 C 10.570 379.200,11.200 379.380,11.200 379.600 C 11.200 379.866,74.400 380.000,200.000 380.000 C 325.600 380.000,388.800 379.866,388.800 379.600 C 388.800 379.380,389.430 379.200,390.200 379.200 C 390.970 379.200,391.600 379.020,391.600 378.800 C 391.600 378.580,391.960 378.400,392.400 378.400 C 392.840 378.400,393.200 378.220,393.200 378.000 C 393.200 377.780,393.476 377.600,393.813 377.600 C 394.151 377.600,395.057 376.970,395.827 376.200 C 396.597 375.430,397.370 374.800,397.546 374.800 C 397.721 374.800,398.120 374.305,398.432 373.700 C 398.744 373.095,399.179 372.472,399.399 372.314 C 400.040 371.858,399.942 327.914,399.300 327.700 C 399.025 327.608,398.800 327.178,398.800 326.743 C 398.800 326.308,398.620 326.064,398.400 326.200 C 398.180 326.336,398.000 326.077,398.000 325.624 C 398.000 325.171,397.820 324.800,397.600 324.800 C 397.380 324.800,397.200 324.440,397.200 324.000 C 397.200 323.560,397.020 323.200,396.800 323.200 C 396.580 323.200,396.400 322.880,396.400 322.488 C 396.400 322.097,396.040 321.517,395.600 321.200 C 395.160 320.883,394.800 320.375,394.800 320.072 C 394.800 319.769,394.260 319.017,393.600 318.400 C 392.940 317.783,392.400 317.085,392.400 316.848 C 392.400 316.340,386.811 310.400,386.333 310.400 C 386.032 310.400,384.626 309.307,383.375 308.100 C 383.090 307.825,382.647 307.600,382.389 307.600 C 382.132 307.600,381.417 307.060,380.800 306.400 C 380.183 305.740,379.431 305.200,379.128 305.200 C 378.825 305.200,378.317 304.840,378.000 304.400 C 377.683 303.960,377.143 303.600,376.800 303.600 C 376.457 303.600,375.917 303.240,375.600 302.800 C 375.283 302.360,374.876 302.000,374.695 302.000 C 374.514 302.000,373.980 301.640,373.508 301.200 C 373.036 300.760,372.413 300.400,372.125 300.400 C 371.836 300.400,371.600 300.220,371.600 300.000 C 371.600 299.780,371.280 299.600,370.888 299.600 C 370.497 299.600,369.917 299.240,369.600 298.800 C 369.283 298.360,368.703 298.000,368.312 298.000 C 367.920 298.000,367.600 297.820,367.600 297.600 C 367.600 297.380,367.240 297.200,366.800 297.200 C 366.360 297.200,366.000 297.020,366.000 296.800 C 366.000 296.580,365.640 296.400,365.200 296.400 C 364.760 296.400,364.400 296.220,364.400 296.000 C 364.400 295.780,364.040 295.600,363.600 295.600 C 363.160 295.600,362.800 295.420,362.800 295.200 C 362.800 294.980,362.440 294.800,362.000 294.800 C 361.560 294.800,361.200 294.620,361.200 294.400 C 361.200 294.180,360.913 294.000,360.562 294.000 C 360.211 294.000,359.401 293.628,358.762 293.173 C 358.123 292.718,357.600 292.445,357.600 292.566 C 357.600 292.687,356.965 292.429,356.188 291.993 C 355.411 291.557,354.511 291.200,354.188 291.200 C 353.865 291.200,353.600 291.020,353.600 290.800 C 353.600 290.580,353.240 290.400,352.800 290.400 C 352.360 290.400,352.000 290.220,352.000 290.000 C 352.000 289.780,351.640 289.600,351.200 289.600 C 350.760 289.600,350.400 289.420,350.400 289.200 C 350.400 288.980,349.860 288.800,349.200 288.800 C 348.540 288.800,348.000 288.620,348.000 288.400 C 348.000 288.180,347.640 288.000,347.200 288.000 C 346.760 288.000,346.400 287.820,346.400 287.600 C 346.400 287.380,346.040 287.200,345.600 287.200 C 345.160 287.200,344.800 287.020,344.800 286.800 C 344.800 286.580,344.260 286.400,343.600 286.400 C 342.940 286.400,342.399 286.265,342.397 286.100 C 342.393 285.694,340.414 284.800,339.520 284.800 C 339.124 284.800,338.800 284.620,338.800 284.400 C 338.800 284.180,338.440 284.000,338.000 284.000 C 337.560 284.000,337.200 283.820,337.200 283.600 C 337.200 283.380,336.660 283.200,336.000 283.200 C 335.340 283.200,334.800 283.020,334.800 282.800 C 334.800 282.580,334.440 282.400,334.000 282.400 C 333.560 282.400,333.200 282.220,333.200 282.000 C 333.200 281.780,332.660 281.600,332.000 281.600 C 331.340 281.600,330.800 281.420,330.800 281.200 C 330.800 280.980,330.260 280.800,329.600 280.800 C 328.940 280.800,328.400 280.620,328.400 280.400 C 328.400 280.180,328.040 280.000,327.600 280.000 C 327.160 280.000,326.800 279.820,326.800 279.600 C 326.800 279.380,326.361 279.200,325.824 279.200 C 325.287 279.200,324.736 279.020,324.600 278.800 C 324.464 278.580,323.924 278.400,323.400 278.400 C 322.876 278.400,322.336 278.220,322.200 278.000 C 322.064 277.780,321.513 277.600,320.976 277.600 C 320.439 277.600,320.000 277.436,320.000 277.235 C 320.000 277.035,319.545 276.920,318.990 276.981 C 318.434 277.042,317.849 276.886,317.690 276.635 C 317.356 276.107,313.348 274.800,312.065 274.800 C 311.589 274.800,311.200 274.620,311.200 274.400 C 311.200 274.180,310.660 274.000,310.000 274.000 C 309.340 274.000,308.800 273.820,308.800 273.600 C 308.800 273.380,308.361 273.200,307.824 273.200 C 307.287 273.200,306.736 273.020,306.600 272.800 C 306.464 272.580,305.733 272.400,304.976 272.400 C 304.219 272.400,303.600 272.220,303.600 272.000 C 303.600 271.780,303.060 271.600,302.400 271.600 C 301.740 271.600,301.200 271.420,301.200 271.200 C 301.200 270.980,300.660 270.800,300.000 270.800 C 299.340 270.800,298.800 270.620,298.800 270.400 C 298.800 270.180,298.260 270.000,297.600 270.000 C 296.940 270.000,296.400 269.820,296.400 269.600 C 296.400 269.380,295.860 269.200,295.200 269.200 C 294.540 269.200,294.000 269.020,294.000 268.800 C 294.000 268.580,293.370 268.400,292.600 268.400 C 291.830 268.400,291.200 268.220,291.200 268.000 C 291.200 267.780,290.660 267.600,290.000 267.600 C 289.340 267.600,288.800 267.420,288.800 267.200 C 288.800 266.980,288.260 266.800,287.600 266.800 C 286.940 266.800,286.400 266.620,286.400 266.400 C 286.400 266.180,285.680 266.000,284.800 266.000 C 283.920 266.000,283.200 265.820,283.200 265.600 C 283.200 265.380,282.660 265.200,282.000 265.200 C 281.340 265.200,280.800 265.020,280.800 264.800 C 280.800 264.580,280.080 264.400,279.200 264.400 C 278.320 264.400,277.600 264.220,277.600 264.000 C 277.600 263.780,277.060 263.600,276.400 263.600 C 275.740 263.600,275.200 263.420,275.200 263.200 C 275.200 262.980,274.570 262.800,273.800 262.800 C 273.030 262.800,272.400 262.620,272.400 262.400 C 272.400 262.180,271.871 262.000,271.224 262.000 C 270.577 262.000,269.936 261.820,269.800 261.600 C 269.664 261.380,269.124 261.200,268.600 261.200 C 268.076 261.200,267.536 261.020,267.400 260.800 C 267.264 260.580,266.724 260.400,266.200 260.400 C 265.676 260.400,265.136 260.220,265.000 260.000 C 264.864 259.780,264.324 259.600,263.800 259.600 C 263.276 259.600,262.731 259.413,262.590 259.184 C 262.448 258.955,262.003 258.872,261.600 259.000 C 261.197 259.128,260.752 259.045,260.610 258.816 C 260.469 258.587,260.003 258.400,259.576 258.400 C 259.149 258.400,258.800 258.254,258.800 258.075 C 258.800 257.896,258.170 257.502,257.400 257.200 C 256.630 256.898,256.000 256.504,256.000 256.325 C 256.000 256.146,255.680 256.000,255.288 256.000 C 254.897 256.000,254.317 255.640,254.000 255.200 C 253.683 254.760,253.143 254.400,252.800 254.400 C 252.457 254.400,251.917 254.040,251.600 253.600 C 251.283 253.160,250.790 252.800,250.505 252.800 C 249.777 252.800,244.000 246.944,244.000 246.206 C 244.000 245.873,243.820 245.600,243.600 245.600 C 243.380 245.600,243.200 245.240,243.200 244.800 C 243.200 244.360,243.064 244.000,242.898 244.000 C 241.515 244.000,240.547 229.750,241.900 229.300 C 242.175 229.208,242.400 228.608,242.400 227.967 C 242.400 227.325,242.580 226.800,242.800 226.800 C 243.020 226.800,243.200 226.350,243.200 225.800 C 243.200 225.250,243.380 224.800,243.600 224.800 C 243.820 224.800,244.000 224.440,244.000 224.000 C 244.000 223.560,244.180 223.200,244.400 223.200 C 244.620 223.200,244.800 222.880,244.800 222.488 C 244.800 222.097,245.160 221.517,245.600 221.200 C 246.040 220.883,246.400 220.343,246.400 220.000 C 246.400 219.657,246.760 219.117,247.200 218.800 C 247.640 218.483,248.000 217.985,248.000 217.695 C 248.000 217.404,249.440 215.741,251.200 214.000 C 252.960 212.259,254.400 210.596,254.400 210.305 C 254.400 210.015,254.773 209.512,255.228 209.188 C 256.265 208.452,258.800 204.973,258.800 204.287 C 258.800 204.006,259.160 203.517,259.600 203.200 C 260.040 202.883,260.400 202.343,260.400 202.000 C 260.400 201.657,260.760 201.117,261.200 200.800 C 261.640 200.483,262.000 199.903,262.000 199.512 C 262.000 199.120,262.180 198.800,262.400 198.800 C 262.620 198.800,262.800 198.440,262.800 198.000 C 262.800 197.560,262.980 197.200,263.200 197.200 C 263.420 197.200,263.600 196.880,263.600 196.488 C 263.600 196.097,263.960 195.517,264.400 195.200 C 264.840 194.883,265.200 194.303,265.200 193.912 C 265.200 193.520,265.380 193.200,265.600 193.200 C 265.820 193.200,266.000 192.840,266.000 192.400 C 266.000 191.960,266.180 191.600,266.400 191.600 C 266.620 191.600,266.800 191.150,266.800 190.600 C 266.800 190.050,266.980 189.600,267.200 189.600 C 267.420 189.600,267.600 189.240,267.600 188.800 C 267.600 188.360,267.780 188.000,268.000 188.000 C 268.220 188.000,268.400 187.640,268.400 187.200 C 268.400 186.760,268.580 186.400,268.800 186.400 C 269.020 186.400,269.200 186.040,269.200 185.600 C 269.200 185.160,269.380 184.800,269.600 184.800 C 269.820 184.800,270.000 184.260,270.000 183.600 C 270.000 182.940,270.180 182.400,270.400 182.400 C 270.620 182.400,270.800 181.860,270.800 181.200 C 270.800 180.540,270.980 180.000,271.200 180.000 C 271.420 180.000,271.600 179.640,271.600 179.200 C 271.600 178.760,271.780 178.400,272.000 178.400 C 272.220 178.400,272.400 177.871,272.400 177.224 C 272.400 176.577,272.580 175.936,272.800 175.800 C 273.020 175.664,273.200 175.034,273.200 174.400 C 273.200 173.766,273.380 173.136,273.600 173.000 C 273.820 172.864,274.000 172.324,274.000 171.800 C 274.000 171.276,274.165 170.745,274.366 170.621 C 274.567 170.496,274.859 169.046,275.013 167.397 C 275.168 165.749,275.453 164.400,275.647 164.400 C 275.841 164.400,276.000 163.680,276.000 162.800 C 276.000 161.920,276.180 161.200,276.400 161.200 C 276.620 161.200,276.800 160.780,276.800 160.267 C 276.800 159.704,276.562 159.333,276.200 159.333 C 275.870 159.333,275.600 159.573,275.600 159.867 " stroke="none" fill="#4bdc42" fill-rule="evenodd"></path></g></svg>